#!OML:ASF H:\Male1\Project 1\Capture day 1\Session 1\Male1.ASF
:FULLY-SPECIFIED
:DEGREES
191
root -3.52804 14.7028 0.228895 55.0396 -87.2801 -53.684
lowerback 12.6647 -0.132004 1.22904
upperback 7.70971 -0.43105 0.636157
thorax 0.977701 -0.352149 0.0162521
lowerneck -4.32005 4.02202 9.87958
upperneck 17.1718 5.00204 -5.34776
head 6.30825 2.54265 -3.00897
rclavicle -2.5842e-015 -6.16232e-015
rhumerus -43.9922 -9.8756 -72.102
rradius 39.2357
rwrist -27.4929
rhand -20.2874 -2.07557
rfingers 7.12502
rthumb 6.06233 -31.9688
lclavicle -2.5842e-015 -6.16232e-015
lhumerus -44.4773 0.115602 67.1513
lradius 50.05
lwrist 18.4295
lhand -29.6908 17.3458
lfingers 7.12502
lthumb -3.01883 47.3042
rfemur -20.0798 4.41147 30.9407
rtibia 41.8204
rfoot -30.2861 -22.1764
rtoes -2.59293
lfemur -16.9666 -0.633162 -19.6892
ltibia 75.547
lfoot -1.35253 -8.9677
ltoes -25.987
192
root -3.80333 14.7241 0.261805 49.6007 -86.9302 -48.4636
lowerback 12.6553 -0.0947492 1.72345
upperback 7.75774 -0.334314 0.668441
thorax 1.03467 -0.288145 -0.239486
lowerneck -4.5046 3.73904 9.7247
upperneck 17.5371 4.54299 -4.92799
head 6.40815 2.33916 -2.88239
rclavicle -6.4605e-016 2.33572e-015
rhumerus -43.2498 -9.01973 -73.121
rradius 40.1808
rwrist -27.2792
rhand -19.7266 -1.40959
rfingers 7.12502
rthumb 6.60373 -31.2866
lclavicle -6.4605e-016 2.33572e-015
lhumerus -44.7764 1.48824 66.0211
lradius 48.1852
lwrist 17.8266
lhand -29.7102 17.8274
lfingers 7.12502
lthumb -3.03762 47.7856
rfemur -18.3014 4.76097 31.0757
rtibia 41.3563
rfoot -31.1218 -22.7404
rtoes -3.19041
lfemur -20.2529 -1.81129 -19.3338
ltibia 77.64
lfoot -3.61824 -5.30988
ltoes -27.1156
193
root -4.08203 14.7483 0.29546 45.7277 -86.6133 -44.7274
lowerback 12.5772 -0.0466903 2.14149
upperback 7.77055 -0.229323 0.706159
thorax 1.09329 -0.221059 -0.44759
lowerneck -4.68217 3.46347 9.51193
upperneck 17.8936 4.10766 -4.55925
head 6.50801 2.14103 -2.76135
rclavicle -6.21202e-015 -6.08778e-016
rhumerus -42.725 -8.18329 -74.0757
rradius 41.3904
rwrist -27.0875
rhand -19.5522 -0.38631
rfingers 7.12502
rthumb 6.77211 -30.258
lclavicle -6.21202e-015 -6.08778e-016
lhumerus -45.03 2.6781 65.0515
lradius 46.2243
lwrist 16.7608
lhand -29.2975 18.1379
lfingers 7.12502
lthumb -2.63901 48.1013
rfemur -16.5137 5.15992 31.2004
rtibia 40.7536
rfoot -31.8226 -23.2403
rtoes -3.97474
lfemur -23.4555 -2.99509 -18.9713
ltibia 78.7437
lfoot -5.57858 -1.4982
ltoes -26.8488
194
root -4.3625 14.7738 0.329639 42.9983 -86.3785 -42.0872
lowerback 12.5033 0.0167177 2.41784
upperback 7.76182 -0.117316 0.760261
thorax 1.12809 -0.155389 -0.559462
lowerneck -4.88147 3.21508 9.24129
upperneck 18.2148 3.72578 -4.257
head 6.60644 1.96096 -2.64793
rclavicle 1.21134e-015 -2.80783e-015
rhumerus -42.347 -7.36559 -74.934
rradius 42.7847
rwrist -27.0296
rhand -19.588 0.791874
rfingers 7.12502
rthumb 6.73751 -29.0809
lclavicle 1.21134e-015 -2.80783e-015
lhumerus -45.2795 3.8164 64.229
lradius 44.2441
lwrist 15.2543
lhand -28.4756 18.2683
lfingers 7.12502
lthumb -1.84527 48.2401
rfemur -14.7101 5.61971 31.2913
rtibia 40.0377
rfoot -32.3639 -23.6496
rtoes -4.85999
lfemur -26.4493 -4.13044 -18.6176
ltibia 78.7985
lfoot -7.38176 2.18486
ltoes -25.6368
195
root -4.64413 14.7992 0.363402 42.0609 -86.2384 -41.2369
lowerback 12.5012 0.106309 2.59064
upperback 7.73551 0.0208418 0.832813
thorax 1.1067 -0.0815496 -0.596558
lowerneck -5.04976 2.9906 8.96526
upperneck 18.4359 3.39723 -4.04146
head 6.67424 1.80046 -2.55755
rclavicle 4.22417e-015 5.06901e-015
rhumerus -42.0865 -6.56524 -75.7095
rradius 44.2827
rwrist -27.2059
rhand -19.7116 1.93847
rfingers 7.12502
rthumb 6.61824 -27.9381
lclavicle 4.22417e-015 5.06901e-015
lhumerus -45.5796 4.92951 63.5131
lradius 42.3248
lwrist 13.4203
lhand -27.2848 18.2108
lfingers 7.12502
lthumb -0.695148 48.1894
rfemur -12.858 6.1678 31.4136
rtibia 39.2198
rfoot -32.716 -23.9818
rtoes -5.7739
lfemur -29.1094 -5.1482 -18.2014
ltibia 77.7817
lfoot -9.10747 5.49412
ltoes -23.6843
196
root -4.92868 14.828 0.397116 42.7428 -86.1832 -42.0142
lowerback 12.5563 0.213834 2.71954
upperback 7.704 0.179392 0.900482
thorax 1.0498 0.000135873 -0.616457
lowerneck -5.18906 2.79588 8.70472
upperneck 18.5595 3.12087 -3.8731
head 6.71168 1.66288 -2.48072
rclavicle 8.87077e-015 4.67144e-015
rhumerus -41.9034 -5.79834 -76.4324
rradius 45.8065
rwrist -27.6267
rhand -19.8295 2.93447
rfingers 7.12502
rthumb 6.50439 -26.9456
lclavicle 8.87077e-015 4.67144e-015
lhumerus -45.9485 5.97275 62.8804
lradius 40.5336
lwrist 11.4102
lhand -25.8643 17.9887
lfingers 7.12502
lthumb 0.676765 47.9674
rfemur -10.9298 6.71788 31.5746
rtibia 38.2666
rfoot -32.8047 -24.2503
rtoes -6.76585
lfemur -31.3232 -6.05527 -17.708
ltibia 75.6751
lfoot -10.7486 8.30572
ltoes -21.2289
